# xmcd CD database file
#
# Track frame offsets:
#	150
#	13127
#	28575
#	43402
#	60497
#	79100
#	101847
#	118577
#	132297
#	151892
#	166205
#	184062
#	203957
#	224495
#	244202
#	263297
#	280952
#	294407
#
# Disc length: 4225 seconds
#
# Revision: 0
# Processed by: cddbd v1.5.1PL2 Copyright (c) Steve Scherf et al.
# Submitted via: CDex 1.51
#
DISCID=05107f12
DTITLE=THE CORRS - Borrowed Heaven
DYEAR=1900
DGENRE=Pop
TTITLE0=Summer Sunshine
TTITLE1=Angel
TTITLE2=Hideaway
TTITLE3=Long Night
TTITLE4=Good Bye
TTITLE5=Time Enough For Tears
TTITLE6=Humdrum
TTITLE7=Even If
TTITLE8=Borrowed Heaven
TTITLE9=Confidence For Quiet
TTITLE10=Baby Be Brave
TTITLE11=Sliver Strand
TTITLE12=Say
TTITLE13=All The Love In The World
TTITLE14=One Night
TTITLE15=At Your Side
TTITLE16=No more Cry
TTITLE17=Haste To The Wedding
EXTD=
EXTT0=
EXTT1=
EXTT2=
EXTT3=
EXTT4=
EXTT5=
EXTT6=
EXTT7=
EXTT8=
EXTT9=
EXTT10=
EXTT11=
EXTT12=
EXTT13=
EXTT14=
EXTT15=
EXTT16=
EXTT17=
PLAYORDER=
